<?xml version="1.0" standalone="no"?>
<!DOCTYPE svg PUBLIC "-//W3C//DTD SVG 20010904//EN"
 "http://www.w3.org/TR/2001/REC-SVG-20010904/DTD/svg10.dtd">
<svg version="1.0" xmlns="http://www.w3.org/2000/svg"
 width="110.000000pt" height="110.000000pt" viewBox="0 0 110.000000 110.000000"
 preserveAspectRatio="xMidYMid meet">
<metadata>
Created by potrace 1.14, written by Peter Selinger 2001-2017
</metadata>
<g transform="translate(0.000000,110.000000) scale(0.100000,-0.100000)"
fill="#000000" stroke="none">
<path d="M102 1083 c-18 -9 -43 -30 -55 -47 -22 -31 -22 -36 -25 -446 -2 -228
0 -434 3 -458 8 -54 51 -105 103 -120 27 -8 162 -12 436 -12 441 0 442 0 492
66 l29 37 0 443 c0 493 1 488 -68 530 -30 18 -57 19 -457 21 -369 1 -430 -1
-458 -14z m883 -49 c40 -19 65 -72 42 -89 -15 -11 -942 -13 -953 -2 -11 10 16
71 39 89 20 16 59 18 430 18 352 0 414 -2 442 -16z m-340 -183 c105 -26 212
-126 256 -241 89 -234 -95 -493 -351 -492 -122 0 -235 62 -304 165 -124 188
-54 441 149 542 84 42 155 49 250 26z"/>
<path d="M170 991 c0 -19 23 -35 34 -24 14 15 5 43 -14 43 -13 0 -20 -7 -20
-19z"/>
<path d="M240 991 c0 -19 23 -35 34 -24 14 15 5 43 -14 43 -13 0 -20 -7 -20
-19z"/>
<path d="M310 991 c0 -19 23 -35 34 -24 14 15 5 43 -14 43 -13 0 -20 -7 -20
-19z"/>
<path d="M485 811 c-147 -38 -248 -169 -247 -321 1 -133 71 -243 192 -302 69
-33 188 -32 255 4 65 34 128 100 157 163 18 40 23 68 23 135 0 74 -4 92 -29
143 -35 68 -99 131 -163 159 -50 22 -141 32 -188 19z m-80 -128 c-14 -27 -25
-53 -25 -59 0 -17 -51 -24 -57 -8 -8 20 76 111 105 114 1 0 -9 -21 -23 -47z
m363 -34 l24 -34 -27 -3 c-33 -4 -29 -8 -60 63 l-26 59 33 -26 c18 -14 43 -40
56 -59z m-240 2 l3 -41 -50 0 c-28 0 -51 2 -51 5 0 8 31 68 42 82 6 7 17 9 31
4 17 -6 23 -18 25 -50z m127 9 l25 -50 -50 0 -50 0 0 44 c0 38 3 45 23 49 12
2 23 5 24 6 2 0 14 -21 28 -49z m-296 -166 l0 -65 -32 3 c-31 3 -32 5 -35 52
-4 63 0 71 36 73 l31 2 0 -65z m171 -1 l0 -64 -57 3 -58 3 -3 39 c-6 75 1 85
63 84 l55 -1 0 -64z m163 55 c2 -7 4 -35 3 -63 l-1 -50 -56 -3 -57 -3 -3 43
c-7 81 -4 85 55 87 36 1 55 -3 59 -11z m118 -3 c11 -104 7 -117 -33 -113 -30
3 -30 4 -30 58 0 30 0 58 1 63 2 11 61 4 62 -8z m-416 -222 c14 -31 23 -58 20
-61 -8 -8 -85 69 -95 93 -5 14 -3 22 9 26 27 10 39 -1 66 -58z m269 19 c-9
-21 -18 -43 -21 -49 -6 -15 -45 -17 -59 -3 -5 5 -8 29 -6 52 l4 43 49 -3 48
-4 -15 -36z m118 6 c-17 -31 -91 -102 -97 -96 -3 2 7 26 20 53 13 28 25 55 25
62 0 13 27 21 52 15 17 -4 17 -6 0 -34z m-255 -14 c0 -37 -4 -47 -21 -54 -12
-4 -24 -6 -29 -3 -10 6 -47 79 -47 93 0 5 22 10 49 10 l48 0 0 -46z m3 -108
c0 -11 -19 -15 -25 -6 -3 5 1 10 9 10 9 0 16 -2 16 -4z m70 0 c0 -3 -4 -8 -10
-11 -5 -3 -10 -1 -10 4 0 6 5 11 10 11 6 0 10 -2 10 -4z"/>
</g>
</svg>
